#!OML:ASF G:\JayActor3\Patient Classification 1\Patient 1\Session 6\male.ASF
:FULLY-SPECIFIED
:DEGREES
3450
root -0.625759 15.1848 -2.34088 1147.82 -86.7598 -1139.42
lowerback 34.5528 1.10071 0.300958
upperback 17.8969 -0.967341 -2.021
thorax 2.05898 -1.2473 -2.03019
lowerneck -9.99474 2.16189 -0.565172
upperneck 20.351 3.85304 -5.45679
head 8.04358 1.14263 -1.35045
rclavicle -1.19271e-014 1.11319e-014
rhumerus -17.734 -1.69328 -85.9619
rradius 62.0355
rwrist 0.103605
rhand -24.6915 -5.5712
rfingers 7.12502
rthumb 1.8095 -35.5433
lclavicle -1.19271e-014 1.11319e-014
lhumerus 62.4149 -30.0731 18.4933
lradius 97.0678
lwrist -3.01767
lhand 16.6524 26.3132
lfingers 7.12502
lthumb 41.4047 51.0996
rfemur -48.8011 -10.8404 23.5182
rtibia 63.5746
rfoot -23.1691 -14.9443
rtoes -3.15823
lfemur -47.5763 12.9483 -21.9264
ltibia 58.33
lfoot -19.0897 5.72217
ltoes -0.652184
3451
root -0.62417 15.1846 -2.34087 1147.84 -86.7563 -1139.45
lowerback 34.5692 1.09983 0.30281
upperback 17.9051 -0.97019 -2.01699
thorax 2.0624 -1.24963 -2.02621
lowerneck -9.90031 2.14823 -0.611934
upperneck 20.2636 3.83491 -5.44996
head 7.99577 1.13543 -1.34236
rclavicle -3.65764e-014 -1.55052e-014
rhumerus -17.724 -1.67691 -85.9455
rradius 62.0333
rwrist 0.101068
rhand -24.7433 -5.58767
rfingers 7.12502
rthumb 1.75953 -35.5602
lclavicle -3.65764e-014 -1.55052e-014
lhumerus 62.5303 -30.0302 18.3692
lradius 97.1059
lwrist -3.0593
lhand 16.7403 26.2746
lfingers 7.12502
lthumb 41.4872 51.0342
rfemur -48.7913 -10.8468 23.5218
rtibia 63.5731
rfoot -23.1695 -14.932
rtoes -3.1282
lfemur -47.5672 12.9531 -21.9218
ltibia 58.3279
lfoot -19.083 5.72397
ltoes -0.680973
3452
root -0.622509 15.1843 -2.34106 1147.91 -86.7498 -1139.54
lowerback 34.5869 1.0987 0.309163
upperback 17.913 -0.972158 -2.01377
thorax 2.0651 -1.25115 -2.02566
lowerneck -9.81875 2.13224 -0.662634
upperneck 20.1894 3.81493 -5.44248
head 7.95469 1.12649 -1.33357
rclavicle -1.51076e-014 -1.90833e-014
rhumerus -17.7141 -1.66493 -85.9327
rradius 62.0304
rwrist 0.0987716
rhand -24.7937 -5.60849
rfingers 7.12502
rthumb 1.71082 -35.5814
lclavicle -1.51076e-014 -1.90833e-014
lhumerus 62.6495 -29.9849 18.2476
lradius 97.1473
lwrist -3.04015
lhand 16.8246 26.2497
lfingers 7.12502
lthumb 41.5663 50.9834
rfemur -48.7816 -10.8478 23.5305
rtibia 63.57
rfoot -23.167 -14.9268
rtoes -3.10827
lfemur -47.5604 12.9607 -21.9123
ltibia 58.3265
lfoot -19.0753 5.72417
ltoes -0.702205
3453
root -0.620671 15.184 -2.34171 1148.04 -86.7404 -1139.68
lowerback 34.6087 1.09991 0.314243
upperback 17.9195 -0.97163 -2.00983
thorax 2.06484 -1.25161 -2.02428
lowerneck -9.74697 2.1126 -0.714707
upperneck 20.1216 3.79205 -5.44184
head 7.91762 1.11509 -1.32704
rclavicle 0 9.54166e-015
rhumerus -17.707 -1.65298 -85.922
rradius 62.0271
rwrist 0.0912996
rhand -24.8424 -5.62534
rfingers 7.12502
rthumb 1.66373 -35.5986
lclavicle 0 9.54166e-015
lhumerus 62.7662 -29.9372 18.1418
lradius 97.1857
lwrist -2.92192
lhand 16.9181 26.2564
lfingers 7.12502
lthumb 41.654 50.9613
rfemur -48.7703 -10.8395 23.5443
rtibia 63.5641
rfoot -23.1646 -14.9299
rtoes -3.09297
lfemur -47.5544 12.9743 -21.8974
ltibia 58.3242
lfoot -19.0638 5.71999
ltoes -0.719289
3454
root -0.618827 15.184 -2.34257 1148.12 -86.7341 -1139.77
lowerback 34.6328 1.10305 0.312912
upperback 17.9258 -0.970643 -2.00617
thorax 2.06363 -1.25232 -2.01991
lowerneck -9.68604 2.08819 -0.76872
upperneck 20.0607 3.7648 -5.44754
head 7.88488 1.10052 -1.32266
rclavicle 4.05521e-014 3.22031e-014
rhumerus -17.7022 -1.63907 -85.9119
rradius 62.023
rwrist 0.0822192
rhand -24.8888 -5.63365
rfingers 7.12502
rthumb 1.61899 -35.6073
lclavicle 4.05521e-014 3.22031e-014
lhumerus 62.8768 -29.8875 18.0561
lradius 97.2165
lwrist -2.71468
lhand 16.999 26.2934
lfingers 7.12502
lthumb 41.7299 50.9733
rfemur -48.7547 -10.8296 23.5539
rtibia 63.5551
rfoot -23.1608 -14.9367
rtoes -3.08273
lfemur -47.5443 12.9884 -21.8856
ltibia 58.3186
lfoot -19.0532 5.71214
ltoes -0.72129
3455
root -0.616784 15.1841 -2.34361 1148.2 -86.728 -1139.87
lowerback 34.658 1.10791 0.306984
upperback 17.9305 -0.968645 -2.00172
thorax 2.06052 -1.25286 -2.01253
lowerneck -9.63195 2.05899 -0.82328
upperneck 19.9993 3.73232 -5.4581
head 7.85325 1.08294 -1.32021
rclavicle 3.18055e-015 3.81667e-014
rhumerus -17.6999 -1.62197 -85.9011
rradius 62.0184
rwrist 0.0707692
rhand -24.925 -5.63171
rfingers 7.12502
rthumb 1.58399 -35.6056
lclavicle 3.18055e-015 3.81667e-014
lhumerus 62.9807 -29.8374 17.9907
lradius 97.2353
lwrist -2.46203
lhand 17.0602 26.3507
lfingers 7.12502
lthumb 41.7873 51.0116
rfemur -48.7406 -10.8153 23.5631
rtibia 63.5436
rfoot -23.1563 -14.9472
rtoes -3.06932
lfemur -47.5348 13.0043 -21.874
ltibia 58.3088
lfoot -19.0401 5.70025
ltoes -0.709865
3456
root -0.614691 15.1846 -2.34467 1148.19 -86.726 -1139.87
lowerback 34.6822 1.11374 0.293576
upperback 17.9338 -0.967193 -1.99713
thorax 2.05608 -1.2541 -2.00088
lowerneck -9.58154 2.0259 -0.871601
upperneck 19.9349 3.69571 -5.47996
head 7.82157 1.06291 -1.32286
rclavicle -1.66979e-014 -1.74931e-014
rhumerus -17.6997 -1.60211 -85.8891
rradius 62.0114
rwrist 0.0621028
rhand -24.9477 -5.62358
rfingers 7.12502
rthumb 1.56209 -35.5976
lclavicle -1.66979e-014 -1.74931e-014
lhumerus 63.0842 -29.7874 17.9364
lradius 97.2427
lwrist -2.22464
lhand 17.0937 26.4109
lfingers 7.12502
lthumb 41.8186 51.0615
rfemur -48.7278 -10.8045 23.566
rtibia 63.5306
rfoot -23.1497 -14.9566
rtoes -3.05944
lfemur -47.5238 13.0165 -21.869
ltibia 58.2941
lfoot -19.0277 5.68772
ltoes -0.6966
